<svg xmlns="http://www.w3.org/2000/svg" viewBox="0 0 1600 900" preserveAspectRatio="xMidYMid slice">
  <defs>
    <linearGradient id="bg" x1="0" y1="0" x2="1" y2="1">
      <stop offset="0" stop-color="#07111F"/>
      <stop offset="0.52" stop-color="#082F4D"/>
      <stop offset="1" stop-color="#07111F"/>
    </linearGradient>
    <radialGradient id="glowA" cx="25%" cy="26%" r="48%">
      <stop offset="0" stop-color="#4D8EFF" stop-opacity="0.38"/>
      <stop offset="1" stop-color="#4D8EFF" stop-opacity="0"/>
    </radialGradient>
    <radialGradient id="glowB" cx="78%" cy="34%" r="42%">
      <stop offset="0" stop-color="#0A73B8" stop-opacity="0.32"/>
      <stop offset="1" stop-color="#0A73B8" stop-opacity="0"/>
    </radialGradient>
  </defs>
  <rect width="1600" height="900" fill="url(#bg)"/>
  <rect width="1600" height="900" fill="url(#glowA)"/>
  <rect width="1600" height="900" fill="url(#glowB)"/>
  <path d="M140 620C350 520 480 330 720 390C960 450 1040 710 1320 590C1435 540 1510 450 1600 410V900H0V700C45 675 90 646 140 620Z" fill="#F8FBFF" opacity="0.045"/>
  <g opacity="0.16" fill="none" stroke="#F8FBFF" stroke-width="1">
    <path d="M180 180H1420"/>
    <path d="M180 300H1420"/>
    <path d="M180 420H1420"/>
    <path d="M320 120V760"/>
    <path d="M560 120V760"/>
    <path d="M800 120V760"/>
    <path d="M1040 120V760"/>
    <path d="M1280 120V760"/>
  </g>
</svg>
